<svg width="21" height="21" viewBox="0 0 21 21" fill="none" xmlns="http://www.w3.org/2000/svg"><path d="M20.75 9.631a.75.75 0 0 0-1.5 0h1.5Zm-.75.874h.75H20Zm-5.939-7.997a.75.75 0 0 0 .61-1.37l-.61 1.37Zm6.47.928a.75.75 0 0 0-1.062-1.06l1.062 1.06ZM10.5 12.415l-.53.53a.75.75 0 0 0 1.06 0l-.53-.53Zm-2.32-3.38a.75.75 0 1 0-1.06 1.06l1.06-1.06Zm11.07.596v.874h1.5v-.874h-1.5Zm0 .874a8.75 8.75 0 0 1-1.742 5.234l1.202.898a10.25 10.25 0 0 0 2.04-6.131l-1.5-.001Zm-1.742 5.234a8.75 8.75 0 0 1-4.527 3.152l.425 1.438a10.25 10.25 0 0 0 5.304-3.692l-1.202-.898Zm-4.527 3.152a8.75 8.75 0 0 1-5.513-.183l-.52 1.407a10.25 10.25 0 0 0 6.458.214l-.425-1.438Zm-5.513-.183a8.75 8.75 0 0 1-4.308-3.446L1.9 16.08a10.25 10.25 0 0 0 5.047 4.036l.52-1.407ZM3.16 15.262a8.75 8.75 0 0 1-1.391-5.338L.272 9.826a10.25 10.25 0 0 0 1.63 6.253l1.258-.817ZM1.769 9.924a8.75 8.75 0 0 1 2.08-5.109l-1.14-.975A10.25 10.25 0 0 0 .271 9.826l1.497.098Zm2.08-5.109a8.75 8.75 0 0 1 4.723-2.85L8.242.502A10.25 10.25 0 0 0 2.707 3.84l1.14.975Zm4.723-2.85a8.75 8.75 0 0 1 5.49.543l.61-1.37a10.25 10.25 0 0 0-6.43-.636l.33 1.463Zm10.897.41-9.5 9.51 1.062 1.06 9.5-9.51-1.062-1.06Zm-8.439 9.51-2.85-2.85-1.06 1.06 2.85 2.85 1.06-1.06Z" fill="#fff"/></svg>