<svg width="46" height="45" viewBox="0 0 46 45" fill="none" xmlns="http://www.w3.org/2000/svg"><mask id="a" fill="#fff"><path d="M0 14h37a5 5 0 0 1 5 5v21a5 5 0 0 1-5 5H5a5 5 0 0 1-5-5V14Z"/></mask><path d="M0 14v-2h-2v2h2Zm0 2h37v-4H0v4Zm40 3v21h4V19h-4Zm-3 24H5v4h32v-4ZM2 40V14h-4v26h4Zm3 3a3 3 0 0 1-3-3h-4a7 7 0 0 0 7 7v-4Zm35-3a3 3 0 0 1-3 3v4a7 7 0 0 0 7-7h-4Zm-3-24a3 3 0 0 1 3 3h4a7 7 0 0 0-7-7v4Z" fill="#1EB16D" mask="url(#a)"/><path d="M6 9h13V7H6v2Zm-4 7v-3H0v3h2Zm4-9a6 6 0 0 0-6 6h2a4 4 0 0 1 4-4V7Z" fill="#1EB16D"/><mask id="b" fill="#fff"><path d="M27 35a5 5 0 0 1-5-5v-1a5 5 0 0 1 5-5h15v11H27Z"/></mask><path d="M42 24h2v-2h-2v2Zm0 11v2h2v-2h-2Zm-18-5v-1h-4v1h4Zm3-4h15v-4H27v4Zm13-2v11h4V24h-4Zm2 9H27v4h15v-4Zm-18-4a3 3 0 0 1 3-3v-4a7 7 0 0 0-7 7h4Zm-4 1a7 7 0 0 0 7 7v-4a3 3 0 0 1-3-3h-4Z" fill="#1EB16D" mask="url(#b)"/><circle cx="27.5" cy="29.5" r="1.5" fill="#1EB16D"/><path d="m29.871 6.5-4.5-4.5-13 13" stroke="#1EB16D" stroke-width="2"/><path d="m21.371 15 13-13 9.394 9.394-3.871 3.872" stroke="#1EB16D" stroke-width="2"/></svg>