<svg width="22" height="22" viewBox="0 0 22 22" fill="none" xmlns="http://www.w3.org/2000/svg"><path d="m15.803 2.467.75.016.021-.978-.95.233.18.729Zm-5.244 6.54-.74.119.108.67.677-.04-.044-.75Zm4.494-6.557c-.02.944-.288 2.385-1.001 3.593-.697 1.18-1.795 2.111-3.537 2.215l.09 1.497c2.345-.14 3.846-1.44 4.738-2.949.875-1.481 1.186-3.189 1.21-4.323l-1.5-.033Zm.571-.712c-1.102.27-2.701.945-3.957 2.121-1.28 1.199-2.221 2.947-1.848 5.267l1.481-.238c-.277-1.723.393-2.997 1.393-3.934 1.024-.96 2.372-1.534 3.289-1.76l-.358-1.456Z" fill="#fff"/><path d="M9.568 1.429c1.255 1.657 3 5.655-.054 8.382-3.019-2.766-1.222-6.74.054-8.382Z"/><path d="m9.568 1.429.598-.453-.59-.78-.6.772.592.46ZM9.514 9.81l-.507.553.5.459.507-.452-.5-.56ZM8.97 1.88c.57.753 1.254 2.049 1.444 3.44.185 1.357-.098 2.768-1.4 3.93l1 1.12c1.752-1.565 2.123-3.516 1.886-5.254-.233-1.704-1.05-3.236-1.734-4.14L8.97 1.88Zm.006-.913c-.696.896-1.532 2.418-1.787 4.119-.26 1.734.086 3.69 1.818 5.277l1.014-1.106C8.734 8.08 8.469 6.664 8.672 5.31c.208-1.388.909-2.675 1.488-3.42L8.976.969ZM8.87 14.382a.75.75 0 0 0 0 1.5v-1.5Zm9.389-4.638.53.53-.53-.53Zm1.897 1.897.53.53-.53-.53Zm-18.58 7.43-.53.531.53-.53Zm.684.684-.53.53.53-.53Zm3.734-.515v-.75.75Zm8.028-1.465-.53-.53.53.53ZM8.869 13.2h5.03v-1.5H8.87v1.5Zm5.03 1.182H8.87v1.5h5.03v-1.5Zm.591-.591a.591.591 0 0 1-.59.591v1.5a2.091 2.091 0 0 0 2.09-2.091h-1.5Zm-.59-.591a.59.59 0 0 1 .59.59h1.5a2.091 2.091 0 0 0-2.09-2.09v1.5Zm1.535.429 3.354-3.354-1.06-1.06-3.354 3.353 1.06 1.06Zm4.19-2.518-6.133 6.134 1.06 1.06 6.134-6.133-1.06-1.061Zm-9.139 7.379H5.994v1.5h4.492v-1.5Zm-7.696.735-.683-.683-1.06 1.06.682.683 1.061-1.06Zm-.683-3.479 1.391-1.391-1.06-1.06-1.392 1.39 1.06 1.061Zm4.18-2.546h3.17v-1.5h-3.17v1.5Zm13.338-2.925a.59.59 0 0 1 0 .836l1.061 1.06a2.091 2.091 0 0 0 0-2.957l-1.06 1.06Zm-.836 0a.59.59 0 0 1 .836 0l1.061-1.06a2.091 2.091 0 0 0-2.957 0l1.06 1.06ZM3.5 14.355A3.944 3.944 0 0 1 6.286 13.2v-1.5a5.444 5.444 0 0 0-3.85 1.594l1.061 1.06Zm-1.392 4.187a1.977 1.977 0 0 1 0-2.796l-1.06-1.06a3.477 3.477 0 0 0 0 4.916l1.06-1.06Zm2.112.683a1.01 1.01 0 0 1-1.429 0l-1.06 1.06c.98.98 2.57.98 3.55 0l-1.061-1.06Zm1.775-.735a2.51 2.51 0 0 0-1.775.735l1.06 1.06c.19-.189.447-.295.715-.295v-1.5Zm7.498-1.245a4.25 4.25 0 0 1-3.006 1.245v1.5a5.75 5.75 0 0 0 4.066-1.684l-1.06-1.061Z" fill="#fff"/></svg>