<svg width="23" height="16" viewBox="0 0 23 16" fill="none" xmlns="http://www.w3.org/2000/svg"><path d="M13.04 1V.25a.75.75 0 0 0-.75.75h.75Zm0 4.667h-.75a.75.75 0 0 0 1.097.665l-.347-.665ZM15.28 4.5l.347-.665a.75.75 0 0 0-.694 0l.347.665Zm2.24 1.167-.346.665a.75.75 0 0 0 1.096-.665h-.75Zm0-4.667h.75a.75.75 0 0 0-.75-.75V1ZM5.76 5.25a.75.75 0 0 0 0-1.5v1.5Zm-1.68-1.5a.75.75 0 0 0 0 1.5v-1.5Zm1.68 5a.75.75 0 0 0 0-1.5v1.5ZM1 7.25a.75.75 0 0 0 0 1.5v-1.5Zm4.76 5a.75.75 0 0 0 0-1.5v1.5Zm-2.8-1.5a.75.75 0 0 0 0 1.5v-1.5Zm7.28-9h10.08V.25H10.24v1.5Zm11.01 1v10.5h1.5V2.75h-1.5Zm-.93 11.5H10.24v1.5h10.08v-1.5Zm-11.01-1V2.75h-1.5v10.5h1.5Zm.93 1c-.485 0-.93-.419-.93-1h-1.5c0 1.352 1.06 2.5 2.43 2.5v-1.5Zm11.01-1c0 .581-.445 1-.93 1v1.5c1.37 0 2.43-1.148 2.43-2.5h-1.5Zm-.93-11.5c.485 0 .93.419.93 1h1.5c0-1.352-1.06-2.5-2.43-2.5v1.5ZM10.24.25c-1.37 0-2.43 1.148-2.43 2.5h1.5c0-.581.445-1 .93-1V.25Zm2.05.75v4.667h1.5V1h-1.5Zm1.097 5.332 2.24-1.167-.694-1.33L12.694 5l.694 1.33Zm1.546-1.167 2.24 1.167.694-1.33-2.24-1.167-.694 1.33Zm3.337.502V1h-1.5v4.667h1.5ZM17.52.25h-4.48v1.5h4.48V.25ZM5.76 3.75H4.08v1.5h1.68v-1.5Zm0 3.5H1v1.5h4.76v-1.5Zm0 3.5h-2.8v1.5h2.8v-1.5Z" fill="#F7F7FB"/></svg>