<svg width="36" height="36" viewBox="0 0 36 36" fill="none" xmlns="http://www.w3.org/2000/svg"><path d="m35 1 .944.33A1 1 0 0 0 34.67.056L35 1ZM23.1 35l-.914.406a1 1 0 0 0 1.858-.076L23.1 35ZM1 12.9l-.33-.944a1 1 0 0 0-.076 1.858L1 12.9ZM34.293.293l-18.7 18.7 1.414 1.414 18.7-18.7L34.293.293Zm-.237.377-11.9 34 1.888.66 11.9-34-1.888-.66ZM24.014 34.594l-6.8-15.3-1.828.812 6.8 15.3 1.828-.812Zm-7.308-15.808-15.3-6.8-.812 1.828 15.3 6.8.812-1.828ZM1.33 13.844l34-11.9-.66-1.888-34 11.9.66 1.888Z" fill="#1EB16D"/></svg>