<svg width="63" height="56" viewBox="0 0 63 56" fill="none" xmlns="http://www.w3.org/2000/svg"><path d="m61 23.474 1.061 1.06.843-.843-.632-1.012-1.272.795ZM31.5 53l-1.061 1.06 1.061 1.062 1.061-1.062L31.5 53ZM2 23.474l-1.272-.795-.632 1.012.843.843L2 23.474ZM15.41 2V.5h-.833l-.44.706L15.409 2Zm32.18 0 1.273-.794-.44-.706h-.832V2ZM20.774 23.474l-1.456-.364-.11.445.156.43 1.41-.511Zm21.454 0 1.41.512.157-.431-.111-.445-1.456.364Zm17.712-1.06-29.5 29.526 2.122 2.12 29.5-29.526-2.122-2.12ZM32.56 51.94l-29.5-29.526-2.122 2.12 29.5 29.526 2.122-2.12ZM3.272 24.268l13.41-21.474-2.545-1.588L.727 22.679l2.545 1.59ZM15.41 3.5h32.182v-3H15.409v3Zm30.91-.706 13.409 21.474 2.544-1.589L48.863 1.206 46.32 2.794ZM2 24.974h59v-3H2v3ZM24.681 1.637 19.317 23.11l2.911.727 5.364-21.474-2.91-.726Zm10.727.727 5.364 21.473 2.91-.727L38.32 1.637l-2.91.727ZM32.91 53.512l10.727-29.526-2.82-1.024L30.09 52.487l2.82 1.024ZM19.363 23.986 30.09 53.512l2.82-1.024-10.727-29.526-2.82 1.024Z" fill="#007AFB"/></svg>