<svg width="40" height="40" viewBox="0 0 40 40" fill="none" xmlns="http://www.w3.org/2000/svg"><path d="M1 0a1 1 0 1 0 0 2V0Zm6.91 1L8.89.812A1 1 0 0 0 7.91 0v1Zm4.628 24.23.983-.187v-.001l-.983.188Zm3.455 2.913v-1h-.02l.02 1Zm16.789 0 .02-1h-.02v1Zm3.454-2.913.983.186.001-.007-.984-.18ZM39 10.048l.984.179A1 1 0 0 0 39 9.047v1Zm-29.364-1a1 1 0 1 0 0 2v-2Zm5.91 28.142c0 .492-.37.81-.728.81v2c1.55 0 2.728-1.302 2.728-2.81h-2Zm-.728.81c-.358 0-.727-.318-.727-.81h-2c0 1.508 1.178 2.81 2.727 2.81v-2Zm-.727-.81c0-.491.369-.809.727-.809v-2c-1.55 0-2.727 1.302-2.727 2.81h2Zm.727-.809c.359 0 .728.318.728.81h2c0-1.508-1.178-2.81-2.728-2.81v2Zm19.727.81c0 .49-.369.809-.727.809v2c1.55 0 2.727-1.302 2.727-2.81h-2Zm-.727.809c-.358 0-.727-.318-.727-.81h-2c0 1.508 1.178 2.81 2.727 2.81v-2Zm-.727-.81c0-.491.369-.809.727-.809v-2c-1.55 0-2.727 1.302-2.727 2.81h2Zm.727-.809c.358 0 .727.318.727.81h2c0-1.508-1.177-2.81-2.727-2.81v2ZM1 2h6.91V0H1v2Zm5.927-.812 4.629 24.23 1.964-.376L8.891.812l-1.964.376Zm4.629 24.228a4.651 4.651 0 0 0 1.56 2.692l1.289-1.529a2.651 2.651 0 0 1-.884-1.536l-1.965.373Zm1.56 2.692a4.356 4.356 0 0 0 2.897 1.035l-.04-2a2.356 2.356 0 0 1-1.568-.564l-1.29 1.529Zm2.877 1.035h16.789v-2h-16.79v2Zm16.769 0a4.355 4.355 0 0 0 2.897-1.035l-1.29-1.529c-.45.38-1.004.575-1.567.564l-.04 2Zm2.897-1.035a4.651 4.651 0 0 0 1.56-2.692l-1.965-.373a2.652 2.652 0 0 1-.884 1.536l1.289 1.529Zm1.561-2.7 2.764-15.181-1.968-.358-2.764 15.181 1.968.359ZM39 9.049H9.636v2H39v-2Z" fill="#1EB16D"/></svg>