<svg width="17" height="19" viewBox="0 0 17 19" fill="none" xmlns="http://www.w3.org/2000/svg"><path d="M6.843 11.095a.75.75 0 1 1-1.06 1.06l1.06-1.06ZM1 6.312l-.53.53a.75.75 0 0 1 0-1.06l.53.53ZM5.782.47a.75.75 0 1 1 1.06 1.06L5.783.47ZM16.75 18a.75.75 0 0 1-1.5 0h1.5Zm-5-11.688v-.75.75Zm-5.968 5.843L.47 6.843l1.06-1.06 5.313 5.312-1.06 1.06ZM.47 5.782 5.782.47l1.06 1.06L1.53 6.843.47 5.783ZM15.25 18v-7.438h1.5V18h-1.5Zm0-7.438a3.5 3.5 0 0 0-1.025-2.474l1.06-1.061a5 5 0 0 1 1.465 3.535h-1.5Zm-1.025-2.474a3.5 3.5 0 0 0-2.475-1.025v-1.5a5 5 0 0 1 3.536 1.464l-1.061 1.06ZM11.75 7.063H1v-1.5h10.75v1.5Z" fill="#fff"/></svg>