<svg width="56" height="27" viewBox="0 0 56 27" fill="none" xmlns="http://www.w3.org/2000/svg"><path d="m39.87 14.755-.578.816.577.408.578-.408-.578-.816ZM15.66 3.528a1 1 0 1 0 0-2v2Zm-4.54-2a1 1 0 0 0 0 2v-2Zm4.54 12.698a1 1 0 1 0 0-2v2Zm-14.66-2a1 1 0 1 0 0 2v-2Zm14.66 12.698a1 1 0 1 0 0-2v2Zm-9.093-2a1 1 0 1 0 0 2v-2ZM27.765 2h24.209V0h-24.21v2Zm24.209 0C53.077 2 54 2.918 54 4.057h2C56 1.833 54.2 0 51.974 0v2ZM54 4.057v18.34h2V4.056h-2Zm0 18.34c0 1.138-.923 2.056-2.026 2.056v2C54.2 26.453 56 24.62 56 22.396h-2Zm-2.026 2.056h-24.21v2h24.21v-2Zm-24.21 0c-1.102 0-2.026-.918-2.026-2.057h-2c0 2.224 1.8 4.057 4.027 4.057v-2Zm-2.026-2.057V4.056h-2v18.34h2Zm0-18.34c0-1.138.924-2.056 2.027-2.056V0c-2.227 0-4.027 1.833-4.027 4.057h2Zm28.685-.816L39.292 13.938l1.154 1.633L55.578 4.873 54.423 3.24ZM40.446 13.938 25.316 3.24 24.16 4.873l15.13 10.698 1.156-1.633ZM15.66 1.528h-4.54v2h4.54v-2Zm0 10.698H1v2h14.66v-2Zm0 10.698H6.567v2h9.093v-2Z" fill="#1EB16D"/></svg>