<svg width="66" height="67" viewBox="0 0 66 67" fill="none" xmlns="http://www.w3.org/2000/svg"><path d="M2 17.3v-1.5H.5v1.5H2Zm62 0h1.5v-1.5H64v1.5ZM64 65v1.5h1.5V65H64ZM2 65H.5v1.5H2V65ZM36.002 3l1.3-.749-.75-1.302-1.3.753.75 1.298Zm11.97 3.328 1.3-.75-.75-1.3-1.301.751.751 1.299ZM64 31.72h1.5v-1.5H64v1.5Zm0 18.858v1.5h1.5v-1.5H64ZM2 18.801h62v-3H2v3Zm60.5-1.5V65h3V17.3h-3ZM64 63.5H2v3h62v-3ZM3.5 65V17.3h-3V65h3Zm8.317-46.277L36.753 4.298l-1.502-2.596-24.936 14.425 1.502 2.596ZM34.703 3.75l8.157 14.157 2.6-1.498L37.301 2.25l-2.6 1.498Zm6.184 8.41 7.836-4.533-1.502-2.597-7.836 4.533 1.502 2.597Zm5.785-5.082 6.282 10.9 2.599-1.498-6.281-10.9-2.6 1.498Zm3.489 26.144H64v-3H50.16v3Zm12.339-1.5V50.58h3V31.721h-3ZM64 49.08H50.16v3H64v-3Zm-13.84 0c-4.365 0-7.91-3.547-7.91-7.929h-3c0 6.034 4.882 10.93 10.91 10.93v-3Zm0-18.858c-6.028 0-10.91 4.896-10.91 10.93h3c0-4.383 3.544-7.93 7.91-7.93v-3Zm0 12.202a1.27 1.27 0 0 1-1.267-1.273h-3a4.27 4.27 0 0 0 4.268 4.273v-3Zm1.269-1.273a1.27 1.27 0 0 1-1.268 1.273v3a4.27 4.27 0 0 0 4.268-4.273h-3Zm-1.268-1.273a1.27 1.27 0 0 1 1.268 1.273h3a4.27 4.27 0 0 0-4.268-4.273v3Zm0-3a4.27 4.27 0 0 0-4.268 4.273h3c0-.706.57-1.273 1.268-1.273v-3Z" fill="#007AFB"/></svg>