<svg width="17" height="19" viewBox="0 0 17 19" fill="none" xmlns="http://www.w3.org/2000/svg"><path d="M3.583 8.65a.75.75 0 0 0 1.5 0h-1.5Zm.75-3.4h-.75.75ZM8.5 1V.25 1Zm3.417 7.65a.75.75 0 0 0 1.5 0h-1.5Zm-9.25.75h11.666V7.9H2.667v1.5Zm11.666 0c.493 0 .917.411.917.95h1.5c0-1.339-1.068-2.45-2.417-2.45v1.5Zm.917.95v5.95h1.5v-5.95h-1.5Zm0 5.95c0 .539-.424.95-.917.95v1.5c1.349 0 2.417-1.111 2.417-2.45h-1.5Zm-.917.95H2.667v1.5h11.666v-1.5Zm-11.666 0a.934.934 0 0 1-.917-.95H.25c0 1.339 1.068 2.45 2.417 2.45v-1.5Zm-.917-.95v-5.95H.25v5.95h1.5Zm0-5.95c0-.539.424-.95.917-.95V7.9C1.318 7.9.25 9.011.25 10.35h1.5Zm3.333-1.7v-3.4h-1.5v3.4h1.5Zm0-3.4c0-.933.364-1.825 1.006-2.48L5.02 1.72a5.043 5.043 0 0 0-1.436 3.53h1.5ZM6.09 2.77A3.376 3.376 0 0 1 8.5 1.75V.25c-1.309 0-2.561.53-3.482 1.47L6.09 2.77ZM8.5 1.75c.901 0 1.769.365 2.41 1.02l1.072-1.05A4.875 4.875 0 0 0 8.5.25v1.5Zm2.41 1.02a3.543 3.543 0 0 1 1.007 2.48h1.5a5.043 5.043 0 0 0-1.435-3.53L10.91 2.77Zm1.007 2.48v3.4h1.5v-3.4h-1.5Z" fill="#fff"/></svg>