<svg width="69" height="67" viewBox="0 0 69 67" fill="none" xmlns="http://www.w3.org/2000/svg"><path d="m51.993 6.375 1.5.033.042-1.956-1.9.467.358 1.456Zm-16.876 21.05-1.481.238.215 1.34 1.355-.08-.09-1.498ZM50.494 6.343c-.069 3.154-.956 7.953-3.352 12.008-2.361 3.998-6.14 7.22-12.115 7.577l.179 2.994c7.18-.428 11.768-4.387 14.52-9.045 2.717-4.6 3.69-9.934 3.767-13.47l-3-.064Zm1.142-1.424c-3.434.843-8.429 2.952-12.329 6.606-3.948 3.698-6.814 9.036-5.671 16.138l2.961-.476c-.95-5.91 1.372-10.299 4.761-13.473 3.438-3.22 7.929-5.13 10.993-5.882l-.715-2.913Z" fill="#007AFB"/><path d="M31.923 3.035c4.038 5.335 9.655 18.2-.174 26.98-9.715-8.905-3.932-21.697.174-26.98Z"/><path d="m31.923 3.035 1.196-.905L31.94.57l-1.2 1.544 1.184.92Zm-.174 26.98-1.014 1.105 1 .917 1.013-.904-.999-1.119ZM30.727 3.94c1.904 2.516 4.186 6.83 4.823 11.497.629 4.6-.336 9.472-4.8 13.458l1.998 2.238c5.366-4.792 6.507-10.742 5.774-16.103-.723-5.294-3.269-10.08-5.403-12.9l-2.392 1.81Zm.012-1.826c-2.17 2.792-4.778 7.545-5.57 12.83-.8 5.35.263 11.315 5.566 16.176l2.028-2.212c-4.413-4.044-5.314-8.927-4.626-13.52.697-4.657 3.034-8.942 4.97-11.433l-2.368-1.84ZM29.678 45.64a1.5 1.5 0 0 0 0 3v-3Zm30.22-15.84 1.06 1.06-1.06-1.06Zm6.105 6.104 1.06 1.06-1.06-1.06ZM3.536 57.15l-1.061 1.06 1.06-1.06Zm12.41 5.34 1.06 1.06-1.06-1.06Zm-7.07 0 1.06-1.061-1.06 1.06Zm7.736-.666 1.06 1.06-1.06-1.06Zm26.4-2.93-1.06-1.06 1.06 1.06ZM29.678 40.007h16.188v-3H29.678v3Zm16.188 5.633H29.678v3h16.188v-3Zm2.816-2.817a2.817 2.817 0 0 1-2.816 2.817v3a5.817 5.817 0 0 0 5.816-5.817h-3Zm-2.816-2.816a2.817 2.817 0 0 1 2.816 2.816h3a5.817 5.817 0 0 0-5.816-5.816v3Zm4.298 1.649L60.959 30.86l-2.122-2.121-10.794 10.794 2.121 2.122Zm14.778-6.811-22.99 22.99 2.12 2.121 22.991-22.99-2.12-2.121ZM39.477 58.859h-19.33v3h19.33v-3ZM15.55 60.763l-.665.666 2.12 2.121.667-.665-2.122-2.122Zm-5.615.666-5.34-5.34-2.121 2.122 5.34 5.34 2.12-2.122Zm-5.34-10.29 10.109-10.108-2.121-2.121-10.11 10.108 2.122 2.121ZM17.18 40.007h14.386v-3H17.18v3Zm47.762-9.146c1.1 1.1 1.1 2.884 0 3.984l2.121 2.12a5.817 5.817 0 0 0 0-8.225l-2.12 2.121Zm-3.983 0c1.1-1.1 2.883-1.1 3.983 0l2.121-2.121a5.817 5.817 0 0 0-8.226 0l2.122 2.121ZM14.705 41.03a3.5 3.5 0 0 1 2.475-1.024v-3a6.5 6.5 0 0 0-4.596 1.904l2.12 2.12ZM4.596 56.09a3.5 3.5 0 0 1 0-4.95l-2.121-2.122a6.5 6.5 0 0 0 0 9.193l2.121-2.122Zm10.29 5.339a3.5 3.5 0 0 1-4.95 0L7.815 63.55a6.5 6.5 0 0 0 9.192 0l-2.121-2.121Zm5.262-2.57a6.5 6.5 0 0 0-4.597 1.904l2.122 2.122a3.5 3.5 0 0 1 2.475-1.026v-3Zm21.804-1.025a3.5 3.5 0 0 1-2.475 1.025v3a6.5 6.5 0 0 0 4.596-1.904l-2.121-2.12Z" fill="#007AFB"/></svg>