<svg xmlns="http://www.w3.org/2000/svg" width="108" height="20" viewBox="0 0 108 20" fill="none"><path fill-rule="evenodd" clip-rule="evenodd" d="M107.742 0H87.54v20h20.202V0Zm-2.806 8.52-5.573-.001-1.722-5.186-1.722 5.185h-5.573l4.509 3.205-1.722 5.187 4.508-3.205 4.508 3.205-1.332-4.01-3.175.805 2.785-1.98 4.509-3.205Z" fill="#02B57A"/><path fill-rule="evenodd" clip-rule="evenodd" d="M85.857 0H65.655v20h20.202V0ZM83.05 8.52l-5.573-.001-1.722-5.186-1.722 5.185H68.46l4.509 3.205-1.722 5.187 4.508-3.205 4.508 3.205-1.332-4.01-3.175.805 2.785-1.98L83.05 8.52ZM63.972 0H43.77v20h20.202V0Zm-2.806 8.52-5.573-.001-1.722-5.186-1.722 5.185h-5.573l4.51 3.205-1.723 5.187 4.509-3.205 4.507 3.205-1.331-4.01-3.176.805 2.785-1.98 4.51-3.205ZM42.086 0H21.885v20h20.201V0Zm-2.805 8.52-5.574-.001-1.721-5.186-1.722 5.185H24.69l4.509 3.206-1.722 5.186 4.508-3.205 4.507 3.205-1.331-4.01-3.176.805 2.786-1.98L39.28 8.52ZM20.202 0H0v20h20.202V0Zm-2.806 8.52-5.574-.001-1.721-5.186-1.722 5.185H2.806l4.509 3.205-1.722 5.187 4.508-3.205 4.508 3.205-1.332-4.01-3.175.805 2.785-1.98 4.509-3.205ZM97.64 0h-10.1v20h10.1v-6.295l-4.507 3.205 1.722-5.187-4.51-3.206 5.574.001 1.722-5.184V0Zm10.101 20h.001V0h-.001v20Z" fill="#02B57A"/></svg>