<svg width="23" height="23" viewBox="0 0 23 23" fill="none" xmlns="http://www.w3.org/2000/svg"><path d="m20.496 13.911-.724-.194.724.194Zm0-4.822.725-.193-.724.193Zm.099-2.84.649-.376-.65.376Zm-2.51-1.333.53-.53-.53.53Zm-1.334-2.51.376-.65-.376.65Zm-2.84.098.194-.725-.194.725Zm-4.822 0-.193-.725.193.725Zm-2.84-.099-.376-.649.376.65Zm-1.333 2.51-.53-.53.53.53ZM2.406 6.25l-.65-.376.65.376Zm.098 2.84-.725-.194.725.194Zm0 4.822-.725.193.725-.193Zm-.099 2.84-.649.376.65-.376Zm2.51 1.333-.53.53.53-.53Zm1.334 2.51-.376.65.376-.65Zm2.84-.098-.194.725.194-.725Zm4.822 0 .193.725-.193-.724Zm2.84.099.376.649-.376-.65Zm1.333-2.51.53.53-.53-.53Zm2.51-1.334.65.376-.65-.376ZM8.8 10.97a.75.75 0 0 0-1.061 1.06l1.06-1.06Zm1.892 2.953-.53.53a.75.75 0 0 0 1.06 0l-.53-.53Zm5.377-4.316a.75.75 0 1 0-1.06-1.06l1.06 1.06Zm5.152 4.498c.016-.063.067-.167.195-.332.13-.167.28-.326.473-.541.176-.197.385-.439.548-.706.165-.272.313-.619.313-1.026h-1.5c0 .036-.012.11-.095.246-.085.14-.211.293-.384.485-.156.175-.368.4-.54.623-.175.226-.367.517-.46.863l1.45.388ZM22.75 11.5c0-.408-.148-.754-.313-1.026a4.942 4.942 0 0 0-.548-.706c-.192-.215-.343-.374-.473-.542-.128-.165-.178-.268-.195-.33l-1.45.386c.093.347.285.638.46.863.172.223.384.449.54.624.173.192.299.345.384.485.083.136.095.21.095.246h1.5Zm-1.529-2.605c-.02-.074-.027-.198 0-.406.027-.211.077-.428.135-.707.053-.256.113-.566.122-.874.01-.312-.032-.684-.234-1.035l-1.299.751c.012.02.038.083.034.24a3.702 3.702 0 0 1-.092.613c-.048.232-.117.534-.154.82-.037.287-.054.637.039.986l1.45-.388Zm.023-3.022c-.203-.351-.506-.574-.783-.723a5.034 5.034 0 0 0-.822-.333c-.272-.09-.484-.154-.68-.235-.194-.08-.294-.146-.344-.196l-1.061 1.06c.255.255.566.413.833.523.263.109.56.2.784.273.248.081.434.15.577.227.14.076.183.13.197.155l1.299-.75Zm-2.63-1.488c-.05-.05-.117-.15-.196-.344-.081-.196-.145-.408-.235-.68a5.024 5.024 0 0 0-.332-.822c-.15-.277-.373-.58-.724-.783l-.751 1.299c.024.014.08.057.155.197.078.143.146.33.227.577.074.225.164.52.273.784.11.267.268.578.523.833l1.06-1.06Zm-1.487-2.629c-.35-.202-.723-.243-1.035-.234a5.087 5.087 0 0 0-.874.122c-.279.058-.496.108-.707.136-.208.026-.332.019-.406-.001l-.388 1.45c.35.092.699.075.987.038.285-.037.587-.106.82-.154.255-.053.45-.087.612-.092.158-.004.22.022.24.034l.75-1.299Zm-3.023.023c-.062-.017-.166-.067-.33-.195-.168-.13-.327-.28-.543-.473a4.931 4.931 0 0 0-.705-.548C12.254.398 11.907.25 11.5.25v1.5c.036 0 .11.012.246.095.14.085.293.211.485.384.175.156.4.368.624.54.225.175.516.367.863.46l.386-1.45ZM11.5.25c-.408 0-.754.148-1.026.313a4.935 4.935 0 0 0-.706.548c-.215.192-.374.343-.541.473-.166.128-.27.178-.331.195l.386 1.45c.347-.093.638-.285.863-.46.223-.172.449-.384.624-.54.192-.173.345-.299.485-.384.136-.083.21-.095.246-.095V.25ZM8.895 1.779c-.074.02-.198.027-.406 0-.211-.027-.428-.077-.707-.135a5.084 5.084 0 0 0-.874-.122c-.312-.01-.684.032-1.035.234l.751 1.299c.02-.012.083-.038.24-.034.163.005.357.039.613.092.232.048.534.117.82.154.287.037.637.054.986-.039l-.388-1.45Zm-3.022-.023c-.351.204-.574.506-.723.783a5.035 5.035 0 0 0-.333.822c-.09.272-.154.484-.235.68-.08.194-.146.294-.196.344l1.06 1.061c.255-.255.413-.566.523-.833.109-.263.2-.56.273-.784.081-.248.15-.434.227-.577.076-.14.13-.183.155-.198l-.75-1.298Zm-1.488 2.63c-.05.05-.15.116-.344.196-.196.081-.408.145-.68.234-.25.082-.55.186-.822.333-.277.15-.58.373-.783.724l1.299.751c.014-.024.057-.08.197-.155a3.64 3.64 0 0 1 .577-.227c.225-.074.52-.164.784-.273.267-.11.578-.268.833-.523l-1.06-1.06ZM1.756 5.872c-.202.35-.243.723-.234 1.035.009.308.069.618.122.874.058.279.108.496.136.707.026.208.019.332-.001.406l1.45.388c.092-.35.075-.699.038-.987-.037-.285-.106-.587-.154-.82a3.698 3.698 0 0 1-.092-.611c-.004-.159.022-.22.034-.24l-1.299-.752Zm.023 3.023c-.017.062-.067.165-.195.33-.13.168-.28.327-.473.542a4.935 4.935 0 0 0-.548.706c-.165.272-.313.618-.313 1.026h1.5c0-.036.012-.11.095-.246.085-.14.211-.293.384-.485.156-.175.368-.4.54-.624.175-.225.367-.516.46-.863l-1.45-.386ZM.25 11.5c0 .407.148.754.313 1.025.163.268.372.51.548.706.192.215.343.375.473.542.128.165.178.27.195.331l1.45-.386c-.093-.347-.285-.638-.46-.864-.172-.222-.384-.448-.54-.623a3.536 3.536 0 0 1-.384-.485c-.083-.136-.095-.21-.095-.246H.25Zm1.529 2.604c.02.075.027.2 0 .407-.027.211-.077.428-.135.707a5.085 5.085 0 0 0-.122.874c-.01.312.032.684.234 1.035l1.299-.752c-.012-.02-.038-.082-.034-.24.005-.162.039-.356.092-.612.048-.233.117-.534.154-.82.037-.287.054-.637-.039-.986l-1.45.387Zm-.023 3.023c.204.35.506.574.783.723.272.148.573.251.822.333.272.09.484.154.68.234.194.08.294.147.344.197l1.061-1.06c-.255-.255-.566-.413-.833-.523-.263-.11-.56-.2-.784-.273a3.627 3.627 0 0 1-.577-.227c-.14-.076-.183-.131-.198-.156l-1.298.752Zm2.63 1.487c.05.05.116.15.196.344.081.197.145.408.234.68.082.25.186.55.333.823.15.277.373.58.724.783l.751-1.299c-.024-.014-.08-.058-.155-.197a3.639 3.639 0 0 1-.227-.577c-.074-.225-.164-.52-.273-.784-.11-.267-.268-.579-.523-.833l-1.06 1.06Zm1.487 2.63c.35.202.723.243 1.035.234.308-.01.618-.07.874-.122.279-.058.496-.108.707-.136.208-.027.332-.019.406 0l.388-1.448c-.35-.093-.699-.077-.987-.04-.285.038-.587.107-.82.155-.255.053-.45.087-.611.091-.159.005-.22-.021-.24-.033l-.752 1.299Zm3.022-.023c.062.017.166.067.331.195.168.13.327.28.542.473.197.176.439.385.706.547.272.166.618.314 1.026.314v-1.5c-.036 0-.11-.012-.246-.095a3.536 3.536 0 0 1-.485-.384c-.175-.156-.4-.368-.624-.54-.225-.175-.516-.367-.863-.46l-.387 1.45ZM11.5 22.75c.407 0 .754-.148 1.025-.313.268-.163.51-.372.706-.548.215-.192.375-.343.542-.473.165-.128.27-.178.331-.195l-.386-1.45c-.347.093-.638.285-.864.46-.222.172-.448.384-.623.54a3.536 3.536 0 0 1-.485.384c-.136.083-.21.095-.246.095v1.5Zm2.604-1.529c.075-.02.2-.027.407 0 .211.027.428.077.707.135.256.053.566.113.874.122.312.01.684-.032 1.035-.234l-.752-1.299c-.02.012-.082.038-.24.034a3.7 3.7 0 0 1-.612-.092c-.233-.048-.534-.117-.82-.154-.287-.037-.637-.054-.986.039l.387 1.45Zm3.023.023c.35-.203.574-.506.723-.783a5.04 5.04 0 0 0 .333-.822c.09-.272.154-.484.234-.68.08-.194.147-.294.197-.344l-1.06-1.061c-.255.255-.413.566-.523.833-.11.263-.2.56-.273.784-.081.248-.15.434-.227.577-.076.14-.131.183-.156.197l.752 1.299Zm1.487-2.63c.05-.05.15-.117.344-.196.197-.081.408-.145.68-.235.25-.081.55-.185.823-.332.277-.15.58-.373.783-.724l-1.299-.751c-.014.024-.058.08-.197.155-.144.078-.33.146-.577.227-.225.074-.52.164-.784.273-.267.11-.579.268-.833.523l1.06 1.06Zm2.63-1.487c.202-.35.243-.723.234-1.035a5.092 5.092 0 0 0-.122-.874c-.059-.28-.109-.496-.136-.707-.027-.208-.02-.332 0-.406l-1.448-.388c-.094.35-.077.699-.04.987.038.285.107.587.155.82.053.255.087.45.091.611.005.159-.021.22-.033.24l1.299.752ZM7.739 12.03l2.423 2.423 1.06-1.06L8.8 10.97l-1.061 1.06Zm3.484 2.423 4.846-4.846-1.06-1.06-4.847 4.846 1.06 1.06Z" fill="#fff"/></svg>